<?xml version="1.0" encoding="utf-8"?>
<!-- Generator: Adobe Illustrator 16.0.0, SVG Export Plug-In . SVG Version: 6.00 Build 0)  -->
<!DOCTYPE svg PUBLIC "-//W3C//DTD SVG 1.1//EN" "http://www.w3.org/Graphics/SVG/1.1/DTD/svg11.dtd">
<svg version="1.1" xmlns="http://www.w3.org/2000/svg" xmlns:xlink="http://www.w3.org/1999/xlink" x="0px" y="0px" width="800px"
	 height="800px" viewBox="0 0 800 800" enable-background="new 0 0 800 800" xml:space="preserve">
<g id="Background">
</g>
<g id="Objects">
	<path fill="#0F9CC9" d="M333.33,625.656c-1.992,0.689-3.883,1.772-6.268,2.414v-21.423h-21.421
		c0.639-2.383,1.721-4.275,2.411-6.268c0.985-2.841,0.043-11.058-7.973-11.058c-8.017,0-8.957,8.217-7.972,11.058
		c0.69,1.992,1.771,3.885,2.411,6.268h-21.422v21.423c-2.385-0.642-4.276-1.725-6.268-2.414c-2.843-0.984-11.059-0.044-11.059,7.972
		c0,8.019,8.216,8.96,11.059,7.975c1.992-0.691,3.883-1.771,6.268-2.412v21.421h53.966V639.19c2.385,0.641,4.276,1.721,6.268,2.412
		c2.843,0.985,11.059,0.044,11.059-7.972C344.389,625.612,336.173,624.672,333.33,625.656z"/>
	<path fill="#005D97" d="M495.335,625.656c-1.987,0.688-3.874,1.765-6.249,2.408c-0.006-0.002-0.012-0.007-0.02-0.009v-21.408
		h-21.421c0.641-2.383,1.722-4.275,2.412-6.268c0.986-2.841,0.044-11.058-7.973-11.058s-8.957,8.217-7.974,11.058
		c0.692,1.992,1.773,3.885,2.412,6.268h-21.422v21.423c-2.385-0.642-4.275-1.725-6.267-2.414
		c-2.843-0.984-11.059-0.044-11.059,7.972c0,8.019,8.216,8.96,11.059,7.975c1.991-0.691,3.882-1.771,6.267-2.412v21.421h21.422
		c-0.639-2.383-1.72-4.273-2.412-6.266c-0.983-2.845-0.043-11.06,7.974-11.06s8.959,8.215,7.973,11.06
		c-0.69,1.992-1.771,3.883-2.412,6.266h21.421v-21.408c0.009-0.002,0.014-0.007,0.021-0.007c2.374,0.644,4.262,1.719,6.247,2.406
		c2.845,0.985,11.059,0.044,11.059-7.972C506.394,625.612,498.18,624.672,495.335,625.656z"/>
	<path fill="#0F9CC9" d="M543.07,628.056v-21.408h-21.422c0.639-2.383,1.721-4.275,2.411-6.268
		c0.984-2.841,0.046-11.058-7.974-11.058c-8.017,0-8.956,8.217-7.971,11.058c0.688,1.992,1.77,3.885,2.41,6.268h-21.421v21.423
		c2.385-0.642,4.276-1.725,6.268-2.414c2.845-0.984,11.061-0.044,11.061,7.972c0,8.019-8.216,8.96-11.061,7.975
		c-1.991-0.691-3.883-1.771-6.268-2.412v21.421h21.421c-0.641,2.387-1.722,4.279-2.41,6.268c-0.985,2.845-0.046,11.06,7.971,11.06
		c8.02,0,8.958-8.215,7.974-11.06c-0.69-1.988-1.772-3.881-2.411-6.268h21.422v-21.408c0.013-0.002,0.021-0.009,0.034-0.013v-11.12
		C543.092,628.066,543.083,628.061,543.07,628.056z"/>
	<g>
		<path fill="#0F9CC9" d="M387.332,679.617c-1.986,0.688-3.874,1.766-6.25,2.408c-0.007-0.002-0.012-0.006-0.019-0.006v-21.41
			h-21.421c0.64-2.383,1.721-4.273,2.411-6.267c0.986-2.844,0.044-11.061-7.972-11.061c-8.018,0-8.958,8.217-7.973,11.061
			c0.69,1.993,1.772,3.884,2.412,6.267H327.1v53.962h53.964v-21.406c0.008-0.003,0.012-0.003,0.021-0.005
			c2.374,0.64,4.261,1.717,6.248,2.404c2.842,0.986,11.058,0.044,11.058-7.975C398.39,679.574,390.174,678.632,387.332,679.617z"/>
		<path fill="#004A88" d="M417.776,687.59c0-8.016,8.216-8.956,11.059-7.97c1.98,0.685,3.865,1.758,6.231,2.399v-21.41h-21.422
			c0.639,2.387,1.721,4.275,2.412,6.268c0.983,2.845,0.045,11.06-7.974,11.06c-8.017,0-8.957-8.215-7.972-11.06
			c0.69-1.992,1.772-3.881,2.412-6.268h-21.421v21.419c2.384-0.638,4.275-1.722,6.268-2.411c2.844-0.985,11.059-0.043,11.059,7.973
			c0,8.017-8.215,8.961-11.059,7.975c-1.993-0.688-3.884-1.771-6.268-2.412v21.419h53.965v-21.406
			c-2.366,0.641-4.251,1.714-6.231,2.399C425.992,696.551,417.776,695.608,417.776,687.59z"/>
		<g>
			<g>
				<g>
					<path fill="#007BAF" d="M482.837,679.62c1.981,0.685,3.864,1.758,6.229,2.399v-21.41h-21.421
						c0.641-2.383,1.722-4.273,2.412-6.267c0.986-2.844,0.044-11.061-7.973-11.061s-8.957,8.217-7.974,11.061
						c0.692,1.993,1.773,3.884,2.412,6.267h-21.422v21.419c-2.385-0.638-4.275-1.722-6.267-2.411
						c-2.843-0.985-11.059-0.043-11.059,7.973c0,8.017,8.216,8.961,11.059,7.975c1.991-0.688,3.882-1.771,6.267-2.412v21.419h53.965
						v-21.406c-2.365,0.641-4.248,1.714-6.229,2.399c-2.844,0.986-11.059,0.044-11.059-7.975
						C471.778,679.574,479.993,678.634,482.837,679.62z"/>
				</g>
			</g>
		</g>
		<path fill="#005D97" d="M521.648,660.609c0.639,2.387,1.721,4.275,2.411,6.268c0.984,2.845,0.046,11.06-7.974,11.06
			c-8.017,0-8.956-8.215-7.971-11.06c0.688-1.992,1.77-3.881,2.41-6.268h-21.421v21.419c-2.386-0.638-4.275-1.722-6.268-2.411
			c-2.844-0.985-11.059-0.043-11.059,7.973c0,8.017,8.215,8.961,11.059,7.975c1.992-0.688,3.882-1.771,6.268-2.412v21.419h53.966
			v-53.962H521.648z"/>
	</g>
	<path fill="#0F9CC9" d="M255.771,255.578c0-8.017,8.216-8.958,11.059-7.973c1.981,0.687,3.865,1.76,6.231,2.4v-21.41H251.64
		c0.639,2.385,1.721,4.276,2.411,6.269c0.985,2.844,0.043,11.059-7.973,11.059c-8.017,0-8.957-8.214-7.974-11.059
		c0.691-1.993,1.773-3.884,2.412-6.269h-21.421v53.963h21.421c-0.639-2.383-1.721-4.274-2.412-6.266
		c-0.983-2.842-0.043-11.06,7.974-11.06c8.016,0,8.958,8.218,7.973,11.06c-0.69,1.992-1.772,3.883-2.411,6.266h21.421v-21.407
		c-2.367,0.64-4.25,1.712-6.231,2.399C263.986,264.536,255.771,263.593,255.771,255.578z"/>
	<path fill="#004A88" d="M279.329,301.646c-1.986,0.688-3.874,1.766-6.25,2.406c-0.006-0.001-0.012-0.004-0.018-0.006v-21.409
		H251.64c0.64-2.384,1.721-4.275,2.411-6.267c0.986-2.844,0.044-11.059-7.972-11.059c-8.016,0-8.959,8.215-7.974,11.059
		c0.69,1.991,1.771,3.883,2.412,6.267h-21.421v53.963h21.421c-0.639,2.387-1.721,4.278-2.412,6.269
		c-0.983,2.843-0.043,11.059,7.974,11.059c8.016,0,8.958-8.216,7.973-11.059c-0.69-1.991-1.772-3.882-2.411-6.269h21.421v-21.408
		c0.007-0.002,0.013-0.005,0.02-0.006c2.375,0.641,4.262,1.717,6.248,2.406c2.842,0.986,11.058,0.043,11.058-7.972
		C290.387,301.602,282.171,300.66,279.329,301.646z"/>
	<path fill="#007BAF" d="M428.835,301.647c1.98,0.687,3.865,1.759,6.231,2.399v-21.409h-21.422c0.639,2.385,1.721,4.276,2.412,6.269
		c0.983,2.844,0.045,11.059-7.974,11.059c-8.017,0-8.957-8.215-7.972-11.059c0.69-1.993,1.772-3.884,2.412-6.269h-21.421v21.421
		c-2.386-0.64-4.277-1.722-6.269-2.413c-2.842-0.985-11.059-0.044-11.059,7.973c0,8.016,8.217,8.96,11.059,7.974
		c1.992-0.69,3.883-1.771,6.269-2.412v21.42h21.421c-0.64,2.387-1.722,4.278-2.412,6.269c-0.984,2.843-0.045,11.059,7.972,11.059
		c8.019,0,8.957-8.216,7.974-11.059c-0.691-1.991-1.773-3.882-2.412-6.269h21.422v-21.408c-2.366,0.64-4.251,1.713-6.231,2.399
		c-2.843,0.986-11.059,0.043-11.059-7.972C417.776,301.602,425.992,300.662,428.835,301.647z"/>
	<path fill="#0F9CC9" d="M536.839,301.647c1.979,0.687,3.863,1.759,6.231,2.399v-21.409h-21.422
		c0.639-2.383,1.721-4.275,2.411-6.267c0.984-2.844,0.046-11.059-7.974-11.059c-8.017,0-8.956,8.215-7.971,11.059
		c0.688,1.991,1.77,3.883,2.41,6.267h-21.421v21.421c2.385-0.64,4.276-1.722,6.268-2.413c2.845-0.985,11.061-0.044,11.061,7.973
		c0,8.016-8.216,8.96-11.061,7.974c-1.991-0.69-3.883-1.771-6.268-2.412v21.42h21.421c-0.641-2.383-1.722-4.274-2.41-6.266
		c-0.985-2.843-0.046-11.059,7.971-11.059c8.02,0,8.958,8.215,7.974,11.059c-0.69,1.992-1.772,3.883-2.411,6.266h21.422v-21.408
		c-2.368,0.64-4.252,1.713-6.231,2.399c-2.844,0.986-11.06,0.043-11.06-7.972C525.779,301.602,533.995,300.662,536.839,301.647z"/>
	<path fill="#004A88" d="M225.327,355.607c-1.986,0.688-3.874,1.765-6.25,2.406c-0.006-0.001-0.012-0.004-0.019-0.006v-21.409
		h-53.964v53.963h21.42c-0.639-2.383-1.721-4.275-2.412-6.267c-0.984-2.843-0.044-11.059,7.973-11.059s8.958,8.216,7.973,11.059
		c-0.69,1.992-1.772,3.884-2.411,6.267h21.421v-21.408c0.007-0.002,0.013-0.004,0.021-0.006c2.374,0.64,4.262,1.717,6.248,2.405
		c2.843,0.986,11.059,0.043,11.059-7.973C236.385,355.564,228.169,354.623,225.327,355.607z"/>
	<path fill="#005D97" d="M279.329,355.607c-1.986,0.688-3.874,1.765-6.25,2.406c-0.006-0.001-0.012-0.004-0.018-0.006v-21.409
		H251.64c0.639,2.385,1.721,4.276,2.411,6.268c0.985,2.845,0.043,11.059-7.973,11.059c-8.017,0-8.957-8.214-7.974-11.059
		c0.691-1.992,1.773-3.883,2.412-6.268h-21.421v21.42c2.386-0.64,4.276-1.722,6.27-2.412c2.844-0.985,11.058-0.044,11.058,7.973
		c0,8.016-8.214,8.959-11.058,7.973c-1.993-0.69-3.884-1.772-6.27-2.412v21.421h21.421c-0.639-2.383-1.721-4.275-2.412-6.267
		c-0.983-2.843-0.043-11.059,7.974-11.059c8.016,0,8.958,8.216,7.973,11.059c-0.69,1.992-1.772,3.884-2.411,6.267h21.421v-21.408
		c0.007-0.002,0.013-0.004,0.02-0.006c2.375,0.64,4.262,1.717,6.248,2.405c2.842,0.986,11.058,0.043,11.058-7.973
		C290.387,355.564,282.171,354.623,279.329,355.607z"/>
	<path fill="#0F9CC9" d="M309.772,363.581c0-8.017,8.216-8.958,11.059-7.972c1.98,0.686,3.865,1.758,6.231,2.399v-21.409h-21.421
		c0.639,2.385,1.721,4.276,2.411,6.268c0.985,2.845,0.043,11.059-7.973,11.059c-8.017,0-8.957-8.214-7.972-11.059
		c0.69-1.992,1.771-3.883,2.411-6.268h-21.422v21.42c2.386-0.64,4.277-1.722,6.269-2.412c2.844-0.985,11.059-0.044,11.059,7.973
		c0,8.016-8.214,8.959-11.059,7.973c-1.992-0.69-3.883-1.772-6.269-2.412v21.421h21.422c-0.64-2.383-1.721-4.275-2.411-6.267
		c-0.985-2.843-0.045-11.059,7.972-11.059c8.017,0,8.958,8.216,7.973,11.059c-0.69,1.992-1.772,3.884-2.411,6.267h21.421v-21.408
		c-2.367,0.641-4.251,1.713-6.231,2.399C317.988,372.54,309.772,371.597,309.772,363.581z"/>
	<path fill="#004A88" d="M428.835,355.609c1.98,0.686,3.865,1.759,6.231,2.399v-21.409h-21.422c0.639,2.385,1.721,4.276,2.412,6.268
		c0.983,2.845,0.045,11.059-7.974,11.059c-8.017,0-8.957-8.214-7.972-11.059c0.69-1.992,1.772-3.883,2.412-6.268h-21.421v21.42
		c-2.386-0.64-4.277-1.722-6.269-2.412c-2.842-0.985-11.059-0.044-11.059,7.973c0,8.016,8.217,8.959,11.059,7.973
		c1.992-0.69,3.883-1.772,6.269-2.412v21.421h21.421c-0.64-2.383-1.722-4.275-2.412-6.267c-0.984-2.843-0.045-11.059,7.972-11.059
		c8.019,0,8.957,8.216,7.974,11.059c-0.691,1.992-1.773,3.884-2.412,6.267h21.422v-21.408c-2.366,0.641-4.251,1.713-6.231,2.399
		c-2.843,0.986-11.059,0.043-11.059-7.973C417.776,355.564,425.992,354.623,428.835,355.609z"/>
	<path fill="#0F9CC9" d="M482.837,355.609c1.981,0.686,3.864,1.759,6.229,2.399v-21.409h-21.421
		c0.641,2.385,1.722,4.276,2.412,6.268c0.986,2.845,0.044,11.059-7.973,11.059s-8.957-8.214-7.974-11.059
		c0.692-1.992,1.773-3.883,2.412-6.268h-21.422v21.42c-2.385-0.64-4.275-1.722-6.267-2.412c-2.843-0.985-11.059-0.044-11.059,7.973
		c0,8.016,8.216,8.959,11.059,7.973c1.991-0.69,3.882-1.772,6.267-2.412v21.421h21.422c-0.639-2.383-1.72-4.275-2.412-6.267
		c-0.983-2.843-0.043-11.059,7.974-11.059s8.959,8.216,7.973,11.059c-0.69,1.992-1.771,3.884-2.412,6.267h21.421v-21.408
		c-2.365,0.641-4.248,1.713-6.229,2.399c-2.844,0.986-11.059,0.043-11.059-7.973C471.778,355.564,479.993,354.623,482.837,355.609z"
		/>
	<path fill="#007BAF" d="M549.337,355.607c-1.986,0.688-3.874,1.765-6.25,2.406c-0.006-0.001-0.013-0.004-0.017-0.006v-21.409
		h-21.422c0.639-2.384,1.721-4.275,2.411-6.267c0.984-2.842,0.046-11.059-7.974-11.059c-8.017,0-8.956,8.216-7.971,11.059
		c0.688,1.992,1.77,3.883,2.41,6.267h-21.421v21.42c-2.386-0.64-4.275-1.722-6.268-2.412c-2.844-0.985-11.059-0.044-11.059,7.973
		c0,8.016,8.215,8.959,11.059,7.973c1.992-0.69,3.882-1.772,6.268-2.412v21.421h21.421c-0.641-2.383-1.722-4.275-2.41-6.267
		c-0.985-2.843-0.046-11.059,7.971-11.059c8.02,0,8.958,8.216,7.974,11.059c-0.69,1.992-1.772,3.884-2.411,6.267h21.422v-21.408
		c0.006-0.002,0.013-0.004,0.019-0.006c2.375,0.64,4.263,1.717,6.248,2.405c2.844,0.986,11.06,0.043,11.06-7.973
		C560.396,355.564,552.181,354.623,549.337,355.607z"/>
	<path fill="#0F9CC9" d="M575.65,336.599c0.64-2.384,1.721-4.275,2.41-6.267c0.986-2.842,0.044-11.059-7.972-11.059
		c-8.018,0-8.957,8.216-7.974,11.059c0.691,1.992,1.773,3.883,2.412,6.267h-21.423v21.42c2.387-0.64,4.278-1.722,6.271-2.412
		c2.845-0.985,11.059-0.044,11.059,7.973c0,8.016-8.214,8.959-11.059,7.973c-1.992-0.69-3.884-1.772-6.271-2.412v21.421h21.423
		c-0.639-2.383-1.721-4.275-2.412-6.267c-0.983-2.843-0.044-11.059,7.974-11.059c8.016,0,8.958,8.216,7.972,11.059
		c-0.689,1.992-1.771,3.884-2.41,6.267h21.421v-53.963H575.65z"/>
	<path fill="#0F9CC9" d="M212.828,409.65c1.98,0.687,3.865,1.76,6.231,2.399v-21.409h-21.421c0.639-2.383,1.721-4.275,2.411-6.267
		c0.985-2.843,0.044-11.059-7.973-11.059s-8.958,8.215-7.973,11.059c0.69,1.992,1.772,3.884,2.412,6.267h-21.42v53.963h21.42
		c-0.639-2.383-1.721-4.274-2.412-6.266c-0.984-2.843-0.044-11.059,7.973-11.059s8.958,8.216,7.973,11.059
		c-0.69,1.991-1.772,3.883-2.411,6.266h21.421v-21.407c-2.366,0.64-4.25,1.713-6.231,2.399c-2.843,0.984-11.059,0.043-11.059-7.973
		C201.769,409.605,209.984,408.665,212.828,409.65z"/>
	<path fill="#007BAF" d="M255.771,417.621c0-8.017,8.216-8.957,11.059-7.972c1.992,0.69,3.883,1.772,6.268,2.413
		c-0.013-0.004-0.023-0.009-0.036-0.013v-21.409H251.64c0.639-2.383,1.721-4.275,2.411-6.267c0.985-2.843,0.043-11.059-7.973-11.059
		c-8.017,0-8.957,8.215-7.974,11.059c0.691,1.992,1.773,3.884,2.412,6.267h-21.421v21.422c-2.385-0.641-4.276-1.723-6.268-2.413
		c-2.843-0.985-11.059-0.045-11.059,7.972c0,8.018,8.216,8.959,11.059,7.975c1.991-0.69,3.883-1.771,6.268-2.412v21.42h21.421
		c-0.639,2.388-1.721,4.279-2.412,6.271c-0.983,2.841-0.043,11.058,7.974,11.058c8.016,0,8.958-8.217,7.973-11.058
		c-0.69-1.992-1.772-3.884-2.411-6.271h21.421v-21.407c0.013-0.005,0.023-0.009,0.036-0.013l0,0
		c-2.385,0.641-4.276,1.722-6.268,2.412C263.986,426.58,255.771,425.639,255.771,417.621z"/>
	<path fill="#004A88" d="M333.33,409.649c-1.986,0.688-3.874,1.765-6.25,2.407c-0.006-0.003-0.012-0.005-0.018-0.007v-21.409
		h-21.421c0.639-2.383,1.721-4.275,2.411-6.267c0.985-2.843,0.043-11.059-7.973-11.059c-8.017,0-8.957,8.215-7.972,11.059
		c0.69,1.992,1.771,3.884,2.411,6.267h-21.422v21.422c-2.385-0.641-4.276-1.723-6.268-2.413c-2.843-0.985-11.059-0.045-11.059,7.972
		c0,8.018,8.216,8.959,11.059,7.975c1.992-0.69,3.883-1.771,6.268-2.412v21.42h21.422c-0.64-2.383-1.721-4.274-2.411-6.266
		c-0.985-2.843-0.045-11.059,7.972-11.059c8.017,0,8.958,8.216,7.973,11.059c-0.69,1.991-1.772,3.883-2.411,6.266h21.421v-21.407
		c0.006-0.002,0.012-0.005,0.02-0.007c2.375,0.641,4.262,1.717,6.248,2.406c2.843,0.984,11.059,0.043,11.059-7.973
		C344.389,409.605,336.173,408.664,333.33,409.649z"/>
	<path fill="#0F9CC9" d="M387.332,409.649c-1.986,0.688-3.874,1.765-6.25,2.407c-0.007-0.003-0.012-0.006-0.019-0.007v-21.409
		h-21.421c0.64,2.386,1.721,4.276,2.411,6.269c0.986,2.845,0.044,11.06-7.972,11.06c-8.018,0-8.958-8.215-7.973-11.06
		c0.69-1.992,1.772-3.883,2.412-6.269H327.1v21.422c2.385-0.641,4.275-1.723,6.268-2.413c2.844-0.985,11.059-0.045,11.059,7.972
		c0,8.018-8.215,8.959-11.059,7.975c-1.993-0.69-3.883-1.771-6.268-2.412v21.42h21.421c-0.64-2.383-1.722-4.274-2.412-6.266
		c-0.984-2.843-0.044-11.059,7.973-11.059c8.016,0,8.958,8.216,7.972,11.059c-0.69,1.991-1.771,3.883-2.411,6.266h21.421v-21.407
		c0.006-0.002,0.012-0.005,0.021-0.007c2.374,0.641,4.262,1.717,6.248,2.406c2.842,0.984,11.058,0.043,11.058-7.973
		C398.39,409.605,390.174,408.664,387.332,409.649z"/>
	<path fill="#007BAF" d="M428.835,409.65c1.98,0.687,3.865,1.76,6.231,2.399v-21.409h-21.422c0.639-2.383,1.721-4.275,2.412-6.267
		c0.983-2.843,0.045-11.059-7.974-11.059c-8.017,0-8.957,8.215-7.972,11.059c0.69,1.992,1.772,3.884,2.412,6.267h-21.421v21.422
		c2.384-0.641,4.275-1.723,6.268-2.413c2.844-0.985,11.059-0.045,11.059,7.972c0,8.018-8.215,8.959-11.059,7.975
		c-1.993-0.69-3.884-1.771-6.268-2.412v21.42h21.421c-0.64-2.383-1.722-4.274-2.412-6.266c-0.984-2.843-0.045-11.059,7.972-11.059
		c8.019,0,8.957,8.216,7.974,11.059c-0.691,1.991-1.773,3.883-2.412,6.266h21.422v-21.407c-2.366,0.64-4.251,1.713-6.231,2.399
		c-2.843,0.984-11.059,0.043-11.059-7.973C417.776,409.605,425.992,408.665,428.835,409.65z"/>
	<path fill="#004A88" d="M482.837,409.65c1.981,0.687,3.864,1.76,6.229,2.399v-21.409h-21.421c0.641-2.383,1.722-4.275,2.412-6.267
		c0.986-2.843,0.044-11.059-7.973-11.059s-8.957,8.215-7.974,11.059c0.692,1.992,1.773,3.884,2.412,6.267h-21.422v21.422
		c-2.385-0.641-4.275-1.723-6.267-2.413c-2.843-0.985-11.059-0.045-11.059,7.972c0,8.018,8.216,8.959,11.059,7.975
		c1.991-0.69,3.882-1.771,6.267-2.412v21.42h21.422c-0.639-2.383-1.72-4.274-2.412-6.266c-0.983-2.843-0.043-11.059,7.974-11.059
		s8.959,8.216,7.973,11.059c-0.69,1.991-1.771,3.883-2.412,6.266h21.421v-21.407c-2.365,0.64-4.248,1.713-6.229,2.399
		c-2.844,0.984-11.059,0.043-11.059-7.973C471.778,409.605,479.993,408.665,482.837,409.65z"/>
	<path fill="#0F9CC9" d="M536.839,409.65c1.979,0.687,3.863,1.76,6.231,2.399v-21.409h-21.422c0.639-2.383,1.721-4.275,2.411-6.267
		c0.984-2.843,0.046-11.059-7.974-11.059c-8.017,0-8.956,8.215-7.971,11.059c0.688,1.992,1.77,3.884,2.41,6.267h-21.421v21.422
		c-2.386-0.641-4.275-1.723-6.268-2.413c-2.844-0.985-11.059-0.045-11.059,7.972c0,8.018,8.215,8.959,11.059,7.975
		c1.992-0.69,3.882-1.771,6.268-2.412v21.42h21.421c-0.641-2.383-1.722-4.274-2.41-6.266c-0.985-2.843-0.046-11.059,7.971-11.059
		c8.02,0,8.958,8.216,7.974,11.059c-0.69,1.991-1.772,3.883-2.411,6.266h21.422v-21.407c-2.368,0.64-4.252,1.713-6.231,2.399
		c-2.844,0.984-11.06,0.043-11.06-7.973C525.779,409.605,533.995,408.665,536.839,409.65z"/>
	<path fill="#005D97" d="M597.071,390.641H575.65c0.64-2.383,1.721-4.275,2.41-6.267c0.986-2.843,0.044-11.059-7.972-11.059
		c-8.018,0-8.957,8.215-7.974,11.059c0.691,1.992,1.773,3.884,2.412,6.267h-21.423v21.422c-2.383-0.641-4.274-1.723-6.266-2.413
		c-2.844-0.985-11.06-0.045-11.06,7.972c0,8.018,8.216,8.959,11.06,7.975c1.991-0.69,3.883-1.771,6.266-2.412v21.42h21.423
		c-0.639,2.388-1.721,4.279-2.412,6.271c-0.983,2.841-0.044,11.058,7.974,11.058c8.016,0,8.958-8.217,7.972-11.058
		c-0.689-1.992-1.771-3.884-2.41-6.271h21.421V390.641z"/>
	<path fill="#005D97" d="M279.329,463.61c-1.986,0.688-3.874,1.767-6.25,2.408c-0.006-0.003-0.012-0.003-0.018-0.007v-21.41H251.64
		c0.639,2.387,1.721,4.276,2.411,6.271c0.985,2.841,0.043,11.058-7.973,11.058c-8.017,0-8.957-8.217-7.974-11.058
		c0.691-1.995,1.773-3.885,2.412-6.271h-21.421v21.423c-2.385-0.642-4.276-1.724-6.268-2.414
		c-2.843-0.984-11.059-0.044-11.059,7.974c0,8.015,8.216,8.958,11.059,7.973c1.991-0.689,3.883-1.771,6.268-2.412v21.421h21.421
		c-0.639-2.382-1.721-4.273-2.412-6.266c-0.983-2.843-0.043-11.06,7.974-11.06c8.016,0,8.958,8.217,7.973,11.06
		c-0.69,1.992-1.772,3.884-2.411,6.266h21.421v-21.406c0.007-0.003,0.013-0.005,0.02-0.007c2.375,0.64,4.262,1.717,6.248,2.404
		c2.842,0.985,11.058,0.042,11.058-7.971C290.387,463.566,282.171,462.626,279.329,463.61z"/>
	<path fill="#0F9CC9" d="M320.831,463.612c1.98,0.687,3.865,1.759,6.231,2.399v-21.41h-21.421c0.639-2.383,1.721-4.274,2.411-6.267
		c0.985-2.842,0.043-11.058-7.973-11.058c-8.017,0-8.957,8.216-7.972,11.058c0.69,1.992,1.771,3.884,2.411,6.267h-21.422v21.423
		c2.386-0.642,4.277-1.724,6.269-2.414c2.844-0.984,11.059-0.044,11.059,7.974c0,8.015-8.214,8.958-11.059,7.973
		c-1.992-0.689-3.883-1.771-6.269-2.412v21.421h21.422c-0.64-2.382-1.721-4.273-2.411-6.266c-0.985-2.843-0.045-11.06,7.972-11.06
		c8.017,0,8.958,8.217,7.973,11.06c-0.69,1.992-1.772,3.884-2.411,6.266h21.421v-21.406c-2.367,0.639-4.251,1.712-6.231,2.397
		c-2.843,0.985-11.059,0.042-11.059-7.971C309.772,463.566,317.988,462.626,320.831,463.612z"/>
	<path fill="#007BAF" d="M387.332,463.61c-1.986,0.688-3.874,1.767-6.25,2.408c-0.007-0.003-0.012-0.005-0.019-0.007v-21.41h-21.421
		c0.64-2.383,1.721-4.274,2.411-6.267c0.986-2.842,0.044-11.058-7.972-11.058c-8.018,0-8.958,8.216-7.973,11.058
		c0.69,1.992,1.772,3.884,2.412,6.267H327.1v21.423c-2.386-0.642-4.277-1.724-6.269-2.414c-2.843-0.984-11.059-0.044-11.059,7.974
		c0,8.015,8.216,8.958,11.059,7.973c1.991-0.689,3.882-1.771,6.269-2.412v21.421h21.421c-0.64,2.389-1.722,4.279-2.412,6.268
		c-0.984,2.845-0.044,11.062,7.973,11.062c8.016,0,8.958-8.217,7.972-11.062c-0.69-1.988-1.771-3.879-2.411-6.268h21.421v-21.406
		c0.006-0.003,0.012-0.005,0.021-0.007c2.374,0.64,4.262,1.717,6.248,2.404c2.842,0.985,11.058,0.042,11.058-7.971
		C398.39,463.566,390.174,462.626,387.332,463.61z"/>
	<path fill="#004A88" d="M428.835,463.612c1.98,0.687,3.865,1.759,6.231,2.399v-21.41h-21.422c0.639-2.383,1.721-4.274,2.412-6.267
		c0.983-2.842,0.045-11.058-7.974-11.058c-8.017,0-8.957,8.216-7.972,11.058c0.69,1.992,1.772,3.884,2.412,6.267h-21.421v21.423
		c2.384-0.642,4.275-1.724,6.268-2.414c2.844-0.984,11.059-0.044,11.059,7.974c0,8.015-8.215,8.958-11.059,7.973
		c-1.993-0.689-3.884-1.771-6.268-2.412v21.421h21.421c-0.64,2.389-1.722,4.279-2.412,6.268c-0.984,2.845-0.045,11.062,7.972,11.062
		c8.019,0,8.957-8.217,7.974-11.062c-0.691-1.988-1.773-3.879-2.412-6.268h21.422v-21.406c-2.366,0.639-4.251,1.712-6.231,2.397
		c-2.843,0.985-11.059,0.042-11.059-7.971C417.776,463.566,425.992,462.626,428.835,463.612z"/>
	<path fill="#0F9CC9" d="M471.778,471.586c0-8.02,8.215-8.96,11.059-7.974c1.981,0.687,3.864,1.759,6.229,2.399v-21.41h-21.421
		c0.641-2.383,1.722-4.274,2.412-6.267c0.986-2.842,0.044-11.058-7.973-11.058s-8.957,8.216-7.974,11.058
		c0.692,1.992,1.773,3.884,2.412,6.267h-21.422v21.423c-2.385-0.642-4.275-1.724-6.267-2.414
		c-2.843-0.984-11.059-0.044-11.059,7.974c0,8.015,8.216,8.958,11.059,7.973c1.991-0.689,3.882-1.771,6.267-2.412v21.421h21.422
		c-0.639,2.389-1.72,4.279-2.412,6.268c-0.983,2.845-0.043,11.062,7.974,11.062s8.959-8.217,7.973-11.062
		c-0.69-1.988-1.771-3.879-2.412-6.268h21.421v-21.406c-2.365,0.639-4.248,1.712-6.229,2.397
		C479.993,480.542,471.778,479.599,471.778,471.586z"/>
	<path fill="#004A88" d="M549.337,463.61c-1.986,0.688-3.874,1.767-6.25,2.408c-0.006-0.003-0.013-0.003-0.017-0.007v-21.41h-21.422
		c0.639-2.383,1.721-4.274,2.411-6.267c0.984-2.842,0.046-11.058-7.974-11.058c-8.017,0-8.956,8.216-7.971,11.058
		c0.688,1.992,1.77,3.884,2.41,6.267h-21.421v21.423c-2.386-0.642-4.275-1.724-6.268-2.414c-2.844-0.984-11.059-0.044-11.059,7.974
		c0,8.015,8.215,8.958,11.059,7.973c1.992-0.689,3.882-1.771,6.268-2.412v21.421h21.421c-0.641,2.389-1.722,4.279-2.41,6.268
		c-0.985,2.845-0.046,11.062,7.971,11.062c8.02,0,8.958-8.217,7.974-11.062c-0.69-1.988-1.772-3.879-2.411-6.268h21.422v-21.406
		c0.006-0.003,0.013-0.005,0.019-0.007c2.375,0.64,4.263,1.717,6.248,2.404c2.844,0.985,11.06,0.042,11.06-7.971
		C560.396,463.566,552.181,462.626,549.337,463.61z"/>
	<g>
		<path fill="#007BAF" d="M575.65,444.602c0.64,2.387,1.721,4.276,2.41,6.271c0.986,2.841,0.044,11.058-7.972,11.058
			c-8.018,0-8.957-8.217-7.974-11.058c0.691-1.995,1.773-3.885,2.412-6.271h-21.423v21.423c2.387-0.642,4.278-1.724,6.271-2.414
			c2.845-0.984,11.059-0.044,11.059,7.974c0,8.015-8.214,8.958-11.059,7.973c-1.992-0.689-3.884-1.771-6.271-2.412v21.421h21.423
			c-0.639-2.382-1.721-4.273-2.412-6.266c-0.983-2.843-0.044-11.06,7.974-11.06c8.016,0,8.958,8.217,7.972,11.06
			c-0.689,1.992-1.771,3.884-2.41,6.266h21.421v-53.964H575.65z"/>
	</g>
	<path fill="#007BAF" d="M212.828,463.612c1.98,0.687,3.865,1.759,6.231,2.399v-21.41h-21.421c0.639-2.383,1.721-4.274,2.411-6.267
		c0.985-2.842,0.044-11.058-7.973-11.058s-8.958,8.216-7.973,11.058c0.69,1.992,1.772,3.884,2.412,6.267h-21.42v53.964h53.964
		v-21.406c-2.366,0.639-4.25,1.712-6.231,2.397c-2.843,0.985-11.059,0.042-11.059-7.971
		C201.769,463.566,209.984,462.626,212.828,463.612z"/>
	<path fill="#0F9CC9" d="M279.329,517.653c-1.986,0.688-3.874,1.765-6.25,2.406c-0.006-0.003-0.012-0.005-0.018-0.007v-21.408
		H251.64c0.639-2.385,1.721-4.275,2.411-6.266c0.985-2.847,0.043-11.062-7.973-11.062c-8.017,0-8.957,8.215-7.974,11.062
		c0.691,1.99,1.773,3.881,2.412,6.266h-21.421v53.964h21.421c-0.639,2.386-1.721,4.277-2.412,6.27
		c-0.983,2.841-0.043,11.058,7.974,11.058c8.016,0,8.958-8.217,7.973-11.058c-0.69-1.992-1.772-3.884-2.411-6.27h21.421v-21.41
		c0.007,0,0.013-0.003,0.02-0.005c2.375,0.64,4.262,1.719,6.248,2.406c2.842,0.986,11.058,0.044,11.058-7.973
		C290.387,517.609,282.171,516.669,279.329,517.653z"/>
	<path fill="#004A88" d="M333.33,517.653c-1.986,0.688-3.874,1.765-6.25,2.406c-0.006-0.003-0.012-0.005-0.018-0.007v-21.408
		h-21.421c0.639-2.385,1.721-4.275,2.411-6.266c0.985-2.847,0.043-11.062-7.973-11.062c-8.017,0-8.957,8.215-7.972,11.062
		c0.69,1.99,1.771,3.881,2.411,6.266h-21.422v21.421c2.386-0.642,4.277-1.723,6.269-2.412c2.844-0.984,11.059-0.044,11.059,7.972
		c0,8.015-8.214,8.961-11.059,7.975c-1.992-0.689-3.883-1.771-6.269-2.412v21.421h21.422c-0.64-2.383-1.721-4.277-2.411-6.268
		c-0.985-2.843-0.045-11.058,7.972-11.058c8.017,0,8.958,8.215,7.973,11.058c-0.69,1.99-1.772,3.885-2.411,6.268h21.421v-21.41
		c0.006,0,0.012-0.003,0.02-0.005c2.375,0.64,4.262,1.719,6.248,2.406c2.843,0.986,11.059,0.044,11.059-7.973
		C344.389,517.609,336.173,516.669,333.33,517.653z"/>
	<path fill="#0F9CC9" d="M387.332,517.653c-1.992,0.689-3.882,1.771-6.268,2.412v-21.421h-21.421
		c0.64,2.385,1.721,4.273,2.411,6.268c0.986,2.843,0.044,11.06-7.972,11.06c-8.018,0-8.958-8.217-7.973-11.06
		c0.69-1.994,1.772-3.883,2.412-6.268H327.1v21.421c2.385-0.642,4.275-1.723,6.268-2.412c2.844-0.984,11.059-0.044,11.059,7.972
		c0,8.015-8.215,8.961-11.059,7.975c-1.993-0.689-3.883-1.771-6.268-2.412v21.421h21.421c-0.64,2.386-1.722,4.277-2.412,6.27
		c-0.984,2.841-0.044,11.058,7.973,11.058c8.016,0,8.958-8.217,7.972-11.058c-0.69-1.992-1.771-3.884-2.411-6.27h21.421v-21.421
		c2.386,0.641,4.276,1.723,6.268,2.412c2.842,0.986,11.058,0.044,11.058-7.973C398.39,517.609,390.174,516.669,387.332,517.653z"/>
	<path fill="#007BAF" d="M417.776,525.627c0-8.018,8.216-8.958,11.059-7.972c1.98,0.687,3.865,1.757,6.231,2.397v-21.408h-21.422
		c0.639,2.385,1.721,4.273,2.412,6.268c0.983,2.843,0.045,11.06-7.974,11.06c-8.017,0-8.957-8.217-7.972-11.06
		c0.69-1.994,1.772-3.883,2.412-6.268h-21.421v21.421c2.384-0.642,4.275-1.723,6.268-2.412c2.844-0.984,11.059-0.044,11.059,7.972
		c0,8.015-8.215,8.961-11.059,7.975c-1.993-0.689-3.884-1.771-6.268-2.412v21.421h21.421c-0.64-2.383-1.722-4.277-2.412-6.268
		c-0.984-2.843-0.045-11.058,7.972-11.058c8.019,0,8.957,8.215,7.974,11.058c-0.691,1.99-1.773,3.885-2.412,6.268h21.422v-21.41
		c-2.366,0.645-4.251,1.715-6.231,2.401C425.992,534.586,417.776,533.644,417.776,525.627z"/>
	<path fill="#005D97" d="M495.335,517.653c-1.987,0.688-3.874,1.765-6.249,2.406c-0.006-0.003-0.012-0.005-0.02-0.007v-21.408
		h-21.421c0.641,2.385,1.722,4.273,2.412,6.268c0.986,2.843,0.044,11.06-7.973,11.06s-8.957-8.217-7.974-11.06
		c0.692-1.994,1.773-3.883,2.412-6.268h-21.422v21.421c-2.385-0.642-4.275-1.723-6.267-2.412
		c-2.843-0.984-11.059-0.044-11.059,7.972c0,8.015,8.216,8.961,11.059,7.975c1.991-0.689,3.882-1.771,6.267-2.412v21.421h21.422
		c-0.639-2.383-1.72-4.277-2.412-6.268c-0.983-2.843-0.043-11.058,7.974-11.058s8.959,8.215,7.973,11.058
		c-0.69,1.99-1.771,3.885-2.412,6.268h21.421v-21.41c0.009,0,0.014-0.003,0.021-0.005c2.374,0.64,4.262,1.719,6.247,2.406
		c2.845,0.986,11.059,0.044,11.059-7.973C506.394,517.609,498.18,516.669,495.335,517.653z"/>
	<path fill="#0F9CC9" d="M525.779,525.627c0-8.018,8.216-8.958,11.06-7.972c1.979,0.687,3.863,1.757,6.231,2.397v-21.408h-21.422
		c0.639,2.385,1.721,4.273,2.411,6.268c0.984,2.843,0.046,11.06-7.974,11.06c-8.017,0-8.956-8.217-7.971-11.06
		c0.688-1.994,1.77-3.883,2.41-6.268h-21.421v21.421c2.385-0.642,4.276-1.723,6.268-2.412c2.845-0.984,11.061-0.044,11.061,7.972
		c0,8.015-8.216,8.961-11.061,7.975c-1.991-0.689-3.883-1.771-6.268-2.412v21.421h21.421c-0.641,2.386-1.722,4.277-2.41,6.27
		c-0.985,2.841-0.046,11.058,7.971,11.058c8.02,0,8.958-8.217,7.974-11.058c-0.69-1.992-1.772-3.884-2.411-6.27h21.422v-21.41
		c-2.368,0.645-4.252,1.715-6.231,2.401C533.995,534.586,525.779,533.644,525.779,525.627z"/>
	<g>
		<g>
			<path fill="#007BAF" d="M255.771,579.589c0-8.018,8.216-8.958,11.059-7.974c1.981,0.687,3.865,1.76,6.231,2.399v-21.408H251.64
				c0.639,2.387,1.721,4.275,2.411,6.27c0.985,2.843,0.043,11.058-7.973,11.058c-8.017,0-8.957-8.215-7.974-11.058
				c0.691-1.994,1.773-3.883,2.412-6.27h-21.421v53.962h21.421c-0.639-2.384-1.721-4.275-2.412-6.265
				c-0.983-2.844-0.043-11.059,7.974-11.059c8.016,0,8.958,8.215,7.973,11.059c-0.69,1.989-1.772,3.881-2.411,6.265h21.421v-21.406
				c-2.367,0.641-4.25,1.714-6.231,2.397C263.986,588.547,255.771,587.604,255.771,579.589z"/>
		</g>
	</g>
	<g>
		<g>
			<g>
				<path fill="#005D97" d="M333.33,571.613c-1.992,0.69-3.883,1.772-6.268,2.412v-21.419h-21.421
					c0.639-2.384,1.721-4.277,2.411-6.267c0.985-2.844,0.043-11.061-7.973-11.061c-8.017,0-8.957,8.217-7.972,11.061
					c0.69,1.989,1.771,3.883,2.411,6.267h-21.422v21.419c-2.385-0.64-4.276-1.722-6.268-2.412
					c-2.843-0.984-11.059-0.042-11.059,7.974c0,8.017,8.216,8.96,11.059,7.973c1.992-0.691,3.883-1.77,6.268-2.41v21.419h21.422
					c-0.64-2.384-1.721-4.275-2.411-6.265c-0.985-2.844-0.045-11.059,7.972-11.059c8.017,0,8.958,8.215,7.973,11.059
					c-0.69,1.989-1.772,3.881-2.411,6.265h21.421v-21.419c2.385,0.641,4.276,1.719,6.268,2.41
					c2.843,0.987,11.059,0.044,11.059-7.971C344.389,571.571,336.173,570.629,333.33,571.613z"/>
			</g>
		</g>
	</g>
	<path fill="#007BAF" d="M387.332,571.613c-1.986,0.69-3.874,1.767-6.25,2.408c-0.007-0.001-0.012-0.005-0.019-0.007v-21.408
		h-21.421c0.64,2.387,1.721,4.275,2.411,6.27c0.986,2.843,0.044,11.058-7.972,11.058c-8.018,0-8.958-8.215-7.973-11.058
		c0.69-1.994,1.772-3.883,2.412-6.27H327.1v21.419c2.385-0.64,4.275-1.722,6.268-2.412c2.844-0.984,11.059-0.042,11.059,7.974
		c0,8.017-8.215,8.96-11.059,7.973c-1.993-0.691-3.883-1.77-6.268-2.41v21.419h21.421c-0.64,2.387-1.722,4.277-2.412,6.271
		c-0.984,2.841-0.044,11.06,7.973,11.06c8.016,0,8.958-8.219,7.972-11.06c-0.69-1.994-1.771-3.885-2.411-6.271h21.421v-21.406
		c0.006-0.003,0.012-0.005,0.021-0.007c2.374,0.64,4.262,1.719,6.248,2.404c2.842,0.987,11.058,0.044,11.058-7.971
		C398.39,571.571,390.174,570.629,387.332,571.613z"/>
	<path fill="#004A88" d="M428.835,571.615c1.98,0.687,3.865,1.76,6.231,2.399v-21.408h-21.422c0.639-2.384,1.721-4.277,2.412-6.267
		c0.983-2.844,0.045-11.061-7.974-11.061c-8.017,0-8.957,8.217-7.972,11.061c0.69,1.989,1.772,3.883,2.412,6.267h-21.421v21.419
		c2.384-0.64,4.275-1.722,6.268-2.412c2.844-0.984,11.059-0.042,11.059,7.974c0,8.017-8.215,8.96-11.059,7.973
		c-1.993-0.691-3.884-1.77-6.268-2.41v21.419h21.421c-0.64-2.384-1.722-4.275-2.412-6.265c-0.984-2.844-0.045-11.059,7.972-11.059
		c8.019,0,8.957,8.215,7.974,11.059c-0.691,1.989-1.773,3.881-2.412,6.265h21.422v-21.406c-2.366,0.641-4.251,1.714-6.231,2.397
		c-2.843,0.987-11.059,0.044-11.059-7.971C417.776,571.571,425.992,570.631,428.835,571.615z"/>
	<path fill="#0F9CC9" d="M482.837,571.615c1.981,0.687,3.864,1.76,6.229,2.399v-21.408h-21.421c0.641-2.384,1.722-4.277,2.412-6.267
		c0.986-2.844,0.044-11.061-7.973-11.061s-8.957,8.217-7.974,11.061c0.692,1.989,1.773,3.883,2.412,6.267h-21.422v21.419
		c-2.385-0.64-4.275-1.722-6.267-2.412c-2.843-0.984-11.059-0.042-11.059,7.974c0,8.017,8.216,8.96,11.059,7.973
		c1.991-0.691,3.882-1.77,6.267-2.41v21.419h21.422c-0.639-2.384-1.72-4.275-2.412-6.265c-0.983-2.844-0.043-11.059,7.974-11.059
		s8.959,8.215,7.973,11.059c-0.69,1.989-1.771,3.881-2.412,6.265h21.421v-21.406c-2.365,0.641-4.248,1.714-6.229,2.397
		c-2.844,0.987-11.059,0.044-11.059-7.971C471.778,571.571,479.993,570.631,482.837,571.615z"/>
	<path fill="#004A88" d="M549.337,571.613c-1.991,0.69-3.882,1.772-6.267,2.412v-21.419h-21.422c0.639,2.387,1.721,4.275,2.411,6.27
		c0.984,2.843,0.046,11.058-7.974,11.058c-8.017,0-8.956-8.215-7.971-11.058c0.688-1.994,1.77-3.883,2.41-6.27h-21.421v21.419
		c-2.386-0.64-4.275-1.722-6.268-2.412c-2.844-0.984-11.059-0.042-11.059,7.974c0,8.017,8.215,8.96,11.059,7.973
		c1.992-0.691,3.882-1.77,6.268-2.41v21.419h21.421c-0.641-2.384-1.722-4.275-2.41-6.265c-0.985-2.844-0.046-11.059,7.971-11.059
		c8.02,0,8.958,8.215,7.974,11.059c-0.69,1.989-1.772,3.881-2.411,6.265h21.422v-21.419c2.385,0.641,4.275,1.719,6.267,2.41
		c2.844,0.987,11.06,0.044,11.06-7.971C560.396,571.571,552.181,570.629,549.337,571.613z"/>
	<path fill="#0F9CC9" d="M578.061,558.878c0.986,2.841,0.044,11.058-7.972,11.058c-8.018,0-8.957-8.217-7.974-11.058
		c0.691-1.992,1.773-3.884,2.412-6.27h-21.423v21.417c2.387-0.64,4.278-1.722,6.271-2.412c2.845-0.984,11.059-0.042,11.059,7.974
		c0,8.017-8.214,8.96-11.059,7.973c-1.992-0.691-3.884-1.77-6.271-2.41v21.419h53.967v-53.96H575.65
		C576.29,554.994,577.371,556.886,578.061,558.878z"/>
	<path fill="#005D97" d="M575.65,498.645c0.64-2.385,1.721-4.275,2.41-6.266c0.986-2.847,0.044-11.062-7.972-11.062
		c-8.018,0-8.957,8.215-7.974,11.062c0.691,1.99,1.773,3.881,2.412,6.266h-21.423v21.421c-2.383-0.642-4.274-1.723-6.266-2.412
		c-2.844-0.984-11.06-0.044-11.06,7.972c0,8.015,8.216,8.961,11.06,7.975c1.991-0.689,3.883-1.771,6.266-2.412v21.419v0.002h21.423
		c-0.639,2.386-1.721,4.277-2.412,6.27c-0.983,2.841-0.044,11.058,7.974,11.058c8.016,0,8.958-8.217,7.972-11.058
		c-0.689-1.992-1.771-3.884-2.41-6.27h21.421v-0.002v-53.962H575.65z"/>
	<path fill="#004A88" d="M266.829,625.656c1.981,0.688,3.865,1.759,6.231,2.399v-21.408H251.64c0.639-2.383,1.721-4.275,2.411-6.268
		c0.985-2.841,0.043-11.058-7.973-11.058c-8.017,0-8.957,8.217-7.974,11.058c0.691,1.992,1.773,3.885,2.412,6.268h-21.421v53.964
		h53.965v-21.408c-2.367,0.641-4.25,1.713-6.231,2.399c-2.843,0.985-11.059,0.044-11.059-7.972
		C255.771,625.612,263.986,624.672,266.829,625.656z"/>
	<path fill="#004A88" d="M363.773,633.631c0-8.019,8.217-8.959,11.059-7.975c1.981,0.688,3.866,1.759,6.231,2.399v-21.408h-21.421
		c0.64,2.387,1.721,4.277,2.411,6.268c0.986,2.847,0.044,11.058-7.972,11.058c-8.018,0-8.958-8.211-7.973-11.058
		c0.69-1.99,1.772-3.881,2.412-6.268H327.1v21.423c2.385-0.642,4.275-1.725,6.268-2.414c2.844-0.984,11.059-0.044,11.059,7.972
		c0,8.019-8.215,8.96-11.059,7.975c-1.993-0.691-3.883-1.771-6.268-2.412v21.421h21.421c-0.64-2.383-1.722-4.273-2.412-6.266
		c-0.984-2.845-0.044-11.06,7.973-11.06c8.016,0,8.958,8.215,7.972,11.06c-0.69,1.992-1.771,3.883-2.411,6.266h21.421v-21.408
		c-2.366,0.641-4.25,1.712-6.231,2.399C371.99,642.588,363.773,641.646,363.773,633.631z"/>
	<path fill="#007BAF" d="M428.835,625.656c1.98,0.688,3.865,1.759,6.231,2.399v-21.408h-21.422c0.639-2.383,1.721-4.275,2.412-6.268
		c0.983-2.841,0.045-11.058-7.974-11.058c-8.017,0-8.957,8.217-7.972,11.058c0.69,1.992,1.772,3.885,2.412,6.268h-21.421v21.423
		c-2.386-0.642-4.277-1.725-6.269-2.414c-2.842-0.984-11.059-0.044-11.059,7.972c0,8.019,8.217,8.96,11.059,7.975
		c1.992-0.691,3.883-1.771,6.269-2.412v21.421h21.421c-0.64,2.387-1.722,4.279-2.412,6.268c-0.984,2.845-0.045,11.06,7.972,11.06
		c8.019,0,8.957-8.215,7.974-11.06c-0.691-1.988-1.773-3.881-2.412-6.268h21.422v-21.408c-2.366,0.641-4.251,1.713-6.231,2.399
		c-2.843,0.985-11.059,0.044-11.059-7.972C417.776,625.612,425.992,624.672,428.835,625.656z"/>
	<path fill="#007BAF" d="M320.831,301.647c1.98,0.687,3.865,1.759,6.231,2.399v-21.409h-21.421c0.639,2.385,1.721,4.276,2.411,6.269
		c0.985,2.844,0.043,11.059-7.973,11.059c-8.017,0-8.957-8.215-7.972-11.059c0.69-1.993,1.771-3.884,2.411-6.269h-21.422v21.421
		c2.386-0.64,4.277-1.722,6.269-2.413c2.844-0.985,11.059-0.044,11.059,7.973c0,8.016-8.214,8.96-11.059,7.974
		c-1.992-0.69-3.883-1.771-6.269-2.412v21.42h21.422c-0.64,2.387-1.721,4.278-2.411,6.269c-0.985,2.843-0.045,11.059,7.972,11.059
		c8.017,0,8.958-8.216,7.973-11.059c-0.69-1.991-1.772-3.882-2.411-6.269h21.421v-21.408c-2.367,0.641-4.251,1.713-6.231,2.399
		c-2.843,0.986-11.059,0.043-11.059-7.972C309.772,301.602,317.988,300.662,320.831,301.647z"/>
	<path fill="#004A88" d="M495.335,301.646c-1.991,0.69-3.883,1.772-6.269,2.413v-21.421h-21.421
		c0.641,2.385,1.722,4.276,2.412,6.269c0.986,2.844,0.044,11.059-7.973,11.059s-8.957-8.215-7.974-11.059
		c0.692-1.993,1.773-3.884,2.412-6.269h-21.422v21.421c-2.385-0.64-4.275-1.722-6.267-2.413c-2.843-0.985-11.059-0.044-11.059,7.973
		c0,8.016,8.216,8.96,11.059,7.974c1.991-0.69,3.882-1.771,6.267-2.412v21.42h21.422c-0.639,2.387-1.72,4.278-2.412,6.269
		c-0.983,2.843-0.043,11.059,7.974,11.059s8.959-8.216,7.973-11.059c-0.69-1.991-1.771-3.882-2.412-6.269h21.421v-21.42
		c2.386,0.641,4.277,1.722,6.269,2.412c2.845,0.986,11.059,0.043,11.059-7.972C506.394,301.602,498.18,300.66,495.335,301.646z"/>
	<path fill="#005D97" d="M363.773,363.581c0-8.017,8.217-8.958,11.059-7.972c1.981,0.686,3.865,1.758,6.231,2.399v-21.409h-21.421
		c0.64-2.384,1.721-4.275,2.411-6.267c0.986-2.842,0.044-11.059-7.972-11.059c-8.018,0-8.958,8.216-7.973,11.059
		c0.69,1.992,1.772,3.883,2.412,6.267H327.1v21.42c-2.386-0.64-4.277-1.722-6.269-2.412c-2.843-0.985-11.059-0.044-11.059,7.973
		c0,8.016,8.216,8.959,11.059,7.973c1.991-0.69,3.882-1.772,6.269-2.412v21.421h21.421c-0.64,2.386-1.722,4.279-2.412,6.269
		c-0.984,2.844-0.044,11.059,7.973,11.059c8.016,0,8.958-8.215,7.972-11.059c-0.69-1.99-1.771-3.883-2.411-6.269h21.421v-21.407
		c-2.367,0.64-4.25,1.712-6.231,2.398C371.99,372.54,363.773,371.597,363.773,363.581z"/>
	<path fill="none" d="M544.545,714.571v-137.51c62.184-81.845,58.4-223,27.066-272.179
		c-50.522-79.296-179.766-99.837-257.721-61.458c-102.882,50.654-156.828,241.139-141.278,248.491
		c11.084,5.24,36.419,4.776,43.105,10.48c7.18,6.128,2.544,14.552,5.043,36.616c2.501,22.064-4.146,57.341,23.281,72.111
		c27.425,14.771,83.057,9.099,83.057,9.099v94.35H544.545z"/>
	<path fill="#005D97" d="M120.096,230.508c-1.349,1.62-2.41,3.522-4.123,5.302l-11.059-18.345l-46.217,27.862l11.06,18.345
		c-2.373,0.683-4.551,0.733-6.613,1.169c-2.943,0.624-9.494,5.671-5.354,12.538c4.139,6.865,11.662,3.431,13.587,1.119
		c1.35-1.62,2.411-3.522,4.122-5.301l11.06,18.346l18.346-11.061c0.685,2.374,0.735,4.553,1.172,6.613
		c0.624,2.944,5.671,9.495,12.537,5.355c6.867-4.139,3.43-11.661,1.119-13.587c-1.619-1.348-3.522-2.41-5.301-4.123l18.344-11.06
		l-11.059-18.345c2.373-0.683,4.552-0.733,6.614-1.17c2.944-0.624,9.494-5.673,5.354-12.538
		C129.545,224.762,122.022,228.197,120.096,230.508z"/>
	<path fill="#0F9CC9" d="M276.598,82.736c-1.986,0.688-3.873,1.766-6.25,2.406c-0.007-0.002-0.012-0.004-0.018-0.005V63.729h-53.964
		v21.419c2.385-0.64,4.275-1.722,6.268-2.412c2.845-0.985,11.059-0.044,11.059,7.973s-8.214,8.96-11.059,7.975
		c-1.992-0.69-3.882-1.772-6.268-2.412v21.419h21.42c-0.64,2.386-1.722,4.279-2.411,6.269c-0.985,2.843-0.045,11.06,7.972,11.06
		c8.016,0,8.958-8.217,7.972-11.06c-0.689-1.99-1.772-3.883-2.411-6.269h21.421V96.283c0.006-0.002,0.012-0.004,0.021-0.006
		c2.375,0.64,4.262,1.719,6.248,2.407c2.843,0.985,11.058,0.042,11.058-7.975C287.656,82.694,279.441,81.751,276.598,82.736z"/>
	<path fill="#004A88" d="M144.328,119.238c2.085-0.212,4.246-0.036,6.662-0.453l-9.035-19.411L93.03,122.146l9.038,19.419
		c1.893-1.586,3.149-3.366,4.666-4.832c2.162-2.093,10.007-4.707,13.39,2.562s-3.668,11.589-6.662,11.896
		c-2.098,0.214-4.267,0.034-6.7,0.458l9.037,19.419l19.421-9.039c0.426,2.433,0.245,4.606,0.459,6.702
		c0.307,2.992,4.625,10.044,11.894,6.661c7.27-3.382,4.656-11.228,2.562-13.391c-1.466-1.512-3.246-2.771-4.831-4.665l19.42-9.04
		l-9.032-19.409c-1.875,1.579-3.132,3.347-4.637,4.805c-2.163,2.092-10.008,4.705-13.391-2.563
		C134.282,123.864,141.333,119.544,144.328,119.238z"/>
	<path fill="#005D97" d="M658.385,101.511c-1.387,1.581-2.493,3.45-4.24,5.184c-0.007,0.002-0.013,0.002-0.02,0.004l-10.591-18.607
		l-46.9,26.699l10.598,18.616c-2.39,0.622-4.566,0.618-6.64,1.004c-2.957,0.55-9.633,5.431-5.666,12.398
		c3.965,6.968,11.572,3.726,13.555,1.458c1.39-1.584,2.497-3.457,4.254-5.196l10.598,18.617l18.616-10.598
		c0.624,2.392,0.621,4.568,1.005,6.641c0.552,2.957,5.435,9.632,12.399,5.666c6.968-3.965,3.722-11.573,1.459-13.556
		c-1.584-1.387-3.461-2.498-5.197-4.254l18.616-10.6l-10.591-18.604c0.005-0.005,0.009-0.009,0.014-0.017
		c2.381-0.616,4.555-0.614,6.621-0.997c2.958-0.551,9.631-5.435,5.666-12.401C667.974,96.003,660.368,99.248,658.385,101.511z"/>
	<path fill="#004A88" d="M676.783,210.703l-7.457,20.08c-2.014-1.43-3.408-3.103-5.035-4.443
		c-2.323-1.914-10.351-3.891-13.143,3.624c-2.791,7.515,4.582,11.259,7.59,11.326c2.107,0.046,4.256-0.31,6.716-0.08l-7.459,20.081
		l20.083,7.458c0.229-2.456-0.126-4.606-0.08-6.714c0.067-3.008,3.809-10.381,11.324-7.59c7.515,2.791,5.537,10.82,3.622,13.142
		c-1.338,1.627-3.011,3.023-4.439,5.035l20.08,7.458l18.788-50.587L676.783,210.703z"/>
	<path fill="#0F9CC9" d="M671.049,648.074c0.903,1.893,1.464,3.985,2.673,6.119l15.229-15.046l-15.055-15.239
		c-1.247,2.132-1.831,4.23-2.765,6.121c-1.331,2.7-7.836,7.804-13.47,2.102c-5.636-5.705-0.45-12.146,2.264-13.444
		c1.903-0.909,4.008-1.47,6.154-2.69l-15.054-15.239l-15.239,15.054c-1.222-2.146-1.781-4.252-2.688-6.154
		c-1.298-2.715-7.741-7.898-13.444-2.264c-5.702,5.633-0.6,12.141,2.099,13.471c1.891,0.932,3.988,1.518,6.122,2.764l-15.239,15.055
		l15.055,15.238c1.246-2.129,1.831-4.228,2.763-6.119c1.332-2.697,7.836-7.803,13.471-2.1c5.634,5.703,0.451,12.146-2.264,13.443
		c-1.902,0.91-4.009,1.469-6.153,2.688l15.055,15.24l15.229-15.045c-2.119-1.234-4.206-1.82-6.086-2.747
		c-2.699-1.329-7.803-7.837-2.101-13.47C663.309,640.176,669.752,645.36,671.049,648.074z"/>
	<path fill="#007BAF" d="M718.754,381.029c-4.239-6.804,2.234-11.947,5.17-12.613c2.044-0.465,4.21-0.553,6.557-1.261
		l-11.321-18.169l-18.182,11.329c1.804,1.686,3.722,2.716,5.362,4.043c2.338,1.893,5.887,9.363-0.918,13.604
		c-6.805,4.24-11.948-2.237-12.616-5.17c-0.469-2.058-0.549-4.233-1.268-6.595l-18.18,11.329l11.327,18.18
		c1.685-1.806,2.719-3.722,4.045-5.361c1.893-2.34,9.363-5.886,13.602,0.917c4.238,6.803-2.233,11.95-5.169,12.617
		c-2.056,0.469-4.233,0.55-6.596,1.268l11.329,18.181l18.18-11.329c-1.802-1.684-3.723-2.719-5.361-4.043
		c-2.338-1.893-5.885-9.362,0.919-13.602c6.805-4.24,11.947,2.236,12.615,5.169c0.466,2.054,0.55,4.234,1.268,6.595l18.181-11.329
		l-11.323-18.171c-1.667,1.797-2.699,3.703-4.019,5.333C730.465,384.289,722.993,387.833,718.754,381.029z"/>
	<path fill="#007BAF" d="M545.036,91.401c-1.987,0.688-3.874,1.765-6.249,2.406c-0.006-0.003-0.012-0.005-0.02-0.007V72.393h-21.421
		c0.641,2.385,1.722,4.273,2.412,6.268c0.986,2.843,0.044,11.06-7.973,11.06s-8.957-8.217-7.974-11.06
		c0.692-1.994,1.773-3.883,2.412-6.268h-21.422v21.421c-2.385-0.642-4.275-1.723-6.267-2.412
		c-2.843-0.984-11.059-0.044-11.059,7.972c0,8.015,8.216,8.961,11.059,7.975c1.991-0.689,3.882-1.771,6.267-2.412v21.421h21.422
		c-0.639-2.383-1.72-4.277-2.412-6.268c-0.983-2.843-0.043-11.058,7.974-11.058s8.959,8.215,7.973,11.058
		c-0.69,1.99-1.771,3.885-2.412,6.268h21.421v-21.41c0.009,0,0.014-0.003,0.021-0.005c2.374,0.64,4.262,1.719,6.247,2.406
		c2.845,0.986,11.059,0.044,11.059-7.973C556.095,91.357,547.881,90.417,545.036,91.401z"/>
	<g>
		<g>
			<g>
				<path fill="#0F9CC9" d="M120.093,413.714c-0.948,1.883-1.55,3.977-2.813,6.099l-14.93-15.359L86.99,419.385
					c-1.204-2.154-1.748-4.266-2.639-6.174c-1.276-2.725-7.679-7.961-13.426-2.373c-5.749,5.588-0.695,12.135,1.993,13.487
					c1.881,0.946,3.977,1.55,6.097,2.813l-15.36,14.932l14.93,15.358c-2.157,1.203-4.267,1.745-6.175,2.639
					c-2.725,1.276-7.959,7.678-2.373,13.425c5.589,5.749,12.137,0.699,13.487-1.991c0.946-1.884,1.551-3.976,2.814-6.097
					l14.931,15.358l15.36-14.932c-2.121-1.264-4.215-1.865-6.096-2.812c-2.688-1.354-7.741-7.898-1.992-13.487
					c5.748-5.587,12.148-0.353,13.425,2.372c0.892,1.908,1.434,4.019,2.639,6.174l15.359-14.932l-14.93-15.358
					c2.156-1.203,4.263-1.748,6.174-2.641c2.727-1.272,7.96-7.677,2.374-13.424C127.992,405.975,121.445,411.026,120.093,413.714z"
					/>
			</g>
		</g>
	</g>
</g>
</svg>
